<svg xmlns="http://www.w3.org/2000/svg" viewBox="0 0 24 24" role="img" aria-label="Android"><path fill="#3DDC84" d="M17.523 15.3414c-.5511 0-.9993-.4486-.9993-.9997s.4482-.9993.9993-.9993c.551 0 .9993.4482.9993.9993.0001.5511-.4483.9997-.9993.9997m-11.046 0c-.5511 0-.9993-.4486-.9993-.9997s.4482-.9993.9993-.9993c.5511 0 .9993.4482.9993.9993 0 .5511-.4482.9997-.9993.9997m11.4045-6.02l1.9973-3.4592a.416.416 0 00-.1521-.5676.416.416 0 00-.5676.1521l-2.0223 3.503C15.5902 8.411 13.8559 8.006 12 8.006s-3.5902.405-5.1368.9437L4.8409 5.4467a.416.416 0 00-.5676-.1521.416.416 0 00-.1521.5676l1.9973 3.4592C2.6889 10.7068 0 14.1524 0 18.2575h24c0-4.1051-2.6889-7.5507-6.1185-8.9361"/></svg>